<svg xmlns="http://www.w3.org/2000/svg" width="40" height="40" fill="none"><rect width="40" height="40" fill="#fff" rx="10"/><path fill="#000" d="M15.323 16.8a.832.832 0 0 1-.002 1.18l-1.359 1.354h4.094a.833.833 0 0 1 0 1.667h-4.1l1.355 1.355a.834.834 0 1 1-1.178 1.178l-2.777-2.777a.834.834 0 0 1 0-1.18l2.789-2.777a.833.833 0 0 1 1.178.002v-.001Zm9.366 0a.834.834 0 0 1 1.178 0l2.777 2.779a.833.833 0 0 1 0 1.177l-2.777 2.778a.833.833 0 1 1-1.178-1.177L26.044 21h-4.1a.833.833 0 0 1 0-1.667h4.1L24.69 17.98a.834.834 0 0 1 0-1.178Z"/><rect width="29" height="29" x="5.5" y="5.5" stroke="#000" rx="5.5"/></svg>