<svg xmlns="http://www.w3.org/2000/svg" width="40" height="40" fill="none"><rect width="40" height="40" fill="#fff" rx="10"/><g clip-path="url(#a)"><path fill="#000" d="M23.644 15.769a.833.833 0 0 1-1.178-.002l-1.355-1.36v4.094a.833.833 0 0 1-1.667 0v-4.1l-1.355 1.356a.833.833 0 1 1-1.178-1.178L19.69 11.8a.834.834 0 0 1 1.179 0l2.777 2.789a.832.832 0 0 1-.002 1.179h.001Zm0 9.365a.833.833 0 0 1 0 1.178l-2.777 2.778a.833.833 0 0 1-1.178 0l-2.778-2.778a.833.833 0 1 1 1.178-1.178l1.355 1.356v-4.1a.833.833 0 0 1 1.667 0v4.1l1.356-1.356a.834.834 0 0 1 1.177 0Z"/></g><rect width="29" height="29" x="5.5" y="5.5" stroke="#000" rx="5.5"/><defs><clipPath id="a"><path fill="#fff" d="M24.445 10.445v20h-8.889v-20z"/></clipPath></defs></svg>