<svg xmlns="http://www.w3.org/2000/svg" width="35" height="37" fill="none"><path fill="#95BD27" d="M23.666 8.245c-2.899-1.67-2.899-5.87 0-7.542 2.898-1.67 6.541.43 6.541 3.771 0 3.342-3.643 5.442-6.541 3.771Zm-4.247-5.653H0V3.8h19.419V2.592ZM8.762 7.352H0v1.065h8.762V7.352Zm.71 12.361H0v1.137h9.473v-1.137ZM6.49 24.047H0v1.137h6.489v-1.137ZM5.335 35.633c.945-1.329 8.609-12.415 9.697-12.681 1.104.305 3.358.969 3.18 1.294-.228.413-2.467 3.357-2.624 4.14-.157.783 1.018 2.937 2.854 1.599 1.837-1.338 5.845-6.336 5.415-7.51-.431-1.176-2.985-2.875-5.841-4.034-.079-.195 2.075-2.31 3.21-4.267.213-.367 4.111 4.659 5.364 4.424 1.9-.356 7.877-5.403 8.23-6.382.352-.979-.047-2.114-1.353-3.01-1.306-.896-4.606 4.654-6.642 4.42-1.361-.158-2.254-3.406-5.481-5.404-2.832-1.752-7.231-2.39-8.308-2.256-1.214.152-4.143 2.883-8.137 7.111-1.298 1.374 1.494 3.865 2.663 3.015 3.536-2.573 5.735-5.77 6.545-5.741.81.029 2.737 1.092 2.737 1.092S3.717 29.947 2.315 32.733c-1.535 3.052 2.075 4.228 3.02 2.9Z"/></svg>