<svg xmlns="http://www.w3.org/2000/svg" width="35" height="47" fill="none"><path fill="#95BD27" d="m24.707 21.162 6.136-8.077 4.185 3.18-6.135 8.08-4.186-3.183Zm-1.256-.93 6.525-8.595-4.395-3.335-6.524 8.594 4.394 3.335Zm-2.683-9.55-1.885 3.865 5.566-7.325-4.151-3.154-3.54 4.66 4.01 1.954ZM18.742 3.53 14.187.07l-4.101 5.401 5.241 2.556 3.415-4.497Zm10.45 23L15.616 16.5l-.969.089.446.195 6.07 13.518-1.613.22-5.633-12.549-3.906-1.728-.39-3.012 3.848 1.897 3.55-.326 1.66-3.4L7.85 6.12-.027 17.108 9.844 32 7.627 46.22H25.8V34.535l3.446-4.778 1.046-4.68-1.102 1.454Z"/></svg>