<svg xmlns="http://www.w3.org/2000/svg" width="35" height="47" fill="none"><path fill="#95BD27" fill-rule="evenodd" d="M7.01 3.716A3.528 3.528 0 0 1 10.538.188h9.408a3.528 3.528 0 0 1 3.529 3.528h3.528a3.528 3.528 0 0 1 3.528 3.529v17.64H28.18V7.246a1.176 1.176 0 0 0-1.176-1.176h-3.528a3.528 3.528 0 0 1-3.529 3.528h-9.408A3.528 3.528 0 0 1 7.01 6.069H3.48a1.176 1.176 0 0 0-1.176 1.176v32.93a1.176 1.176 0 0 0 1.176 1.176h14.113v2.352H3.481a3.528 3.528 0 0 1-3.528-3.528V7.245a3.528 3.528 0 0 1 3.528-3.529H7.01Zm3.528-1.176a1.176 1.176 0 0 0-1.176 1.176V6.07a1.176 1.176 0 0 0 1.176 1.176h9.408a1.176 1.176 0 0 0 1.176-1.176V3.716a1.176 1.176 0 0 0-1.176-1.176h-9.408Zm3.528 11.761v3.528h-3.528v2.352h3.528v3.529h2.352V20.18h3.528V17.83h-3.528v-3.528h-2.352Zm5.88 12.937a1.176 1.176 0 0 0-1.176 1.176v7.984a8.233 8.233 0 0 0 3.666 6.85l3.914 2.61a1.177 1.177 0 0 0 1.306 0l3.914-2.61a8.233 8.233 0 0 0 3.665-6.848v-7.986a1.176 1.176 0 0 0-1.176-1.176H19.946Zm11.417 6.712-4.705 4.704a1.176 1.176 0 0 1-1.663 0l-2.352-2.352 1.663-1.663 1.52 1.52 3.874-3.872 1.663 1.663Z" clip-rule="evenodd"/></svg>